<svg width="18" height="20" viewBox="0 0 18 20" fill="none" xmlns="http://www.w3.org/2000/svg">
<path fill-rule="evenodd" clip-rule="evenodd" d="M8.96468 0.513184C4.22213 0.513184 0.377594 4.72592 0.377594 9.92257C0.377594 15.1192 4.22213 19.332 8.96468 19.332C13.7072 19.332 17.5518 15.1192 17.5518 9.92257C17.5518 4.72592 13.7072 0.513184 8.96468 0.513184V0.513184ZM8.07505 17.9291C6.44581 17.7153 4.93837 16.9162 3.76008 15.6251C2.36988 14.1018 1.60431 12.0764 1.60431 9.92214C1.60431 7.98281 2.22506 6.14825 3.36305 4.69002C3.39236 5.07531 3.46473 5.48837 3.4462 5.78364C3.37849 6.86006 3.28156 7.53374 3.85656 8.44188C4.08057 8.79559 4.1356 9.30266 4.24463 9.71206C4.35127 10.1126 4.77728 10.3227 5.0711 10.5694C5.66389 11.0675 6.23101 11.6463 6.8596 12.0846C7.27447 12.3739 7.53361 12.5178 7.41211 13.0726C7.31439 13.5187 7.2871 13.7935 7.07647 14.191C7.01219 14.3123 7.3191 15.092 7.42123 15.2039C7.73078 15.5431 8.03793 15.8542 8.37535 16.1596C8.89846 16.6332 8.32453 17.2485 8.07505 17.9291V17.9291ZM14.1692 15.6251C13.111 16.7847 11.7872 17.5471 10.3481 17.8454C10.5521 17.2928 10.9152 16.8018 11.252 16.5172C11.545 16.2695 11.912 15.793 12.065 15.4156C12.218 15.0386 12.4205 14.7119 12.6256 14.3653C12.9172 13.8722 11.9064 13.1287 11.5789 12.9728C10.8418 12.6222 10.2869 12.149 9.63189 11.644C9.16517 11.2842 8.21762 11.8319 7.69071 11.5799C6.96903 11.2346 6.37445 10.6346 5.74714 10.1169C5.09981 9.58273 5.1311 8.95994 5.1311 8.17186C5.63815 8.19235 6.35947 8.0181 6.6961 8.46491C6.80232 8.60591 7.16756 9.23585 7.41205 9.01201C7.61178 8.82912 7.26404 8.096 7.19687 7.92364C6.99025 7.39369 7.66768 7.187 8.01442 6.82763C8.4669 6.35879 9.43748 5.6235 9.36078 5.28743C9.28407 4.95136 8.38961 3.9992 7.86427 4.14776C7.78554 4.17002 7.09238 4.96643 6.95846 5.09137C6.96201 4.83144 6.96556 4.57155 6.96919 4.31161C6.97146 4.14749 6.68978 3.97903 6.70287 3.87317C6.7359 3.60564 7.41551 3.1201 7.58457 2.90704C7.46613 2.82593 7.06196 2.44552 6.93963 2.50135C6.64346 2.63661 6.30898 2.7298 6.01281 2.86501C6.01281 2.75246 6.00034 2.64674 5.98548 2.54233C6.57898 2.2544 7.20695 2.05417 7.85606 1.94737L8.4375 2.20341L8.84803 2.73726L9.25773 3.20017L9.61587 3.32661L10.1847 2.73875L10.038 2.31908V1.94185C11.163 2.1209 12.2254 2.58078 13.1559 3.28993C12.9894 3.30626 12.8065 3.33308 12.6001 3.36185C12.5149 3.30666 12.4055 3.2816 12.3126 3.2432C12.5822 3.87842 12.8634 4.50487 13.1492 5.13168C13.4544 5.80124 14.1314 6.51943 14.2503 7.22622C14.3905 8.05931 14.2932 8.81604 14.3699 9.7962C14.4437 10.7401 15.3411 11.8125 15.3411 11.8125C15.3411 11.8125 15.7554 11.9672 16.1 11.9133C15.7788 13.3059 15.1202 14.583 14.1692 15.6251V15.6251Z" fill="#2F2F2F"/>
</svg>
