<svg width="15" height="18" viewBox="0 0 15 18" fill="none" xmlns="http://www.w3.org/2000/svg">
<path d="M7.5338 17.9989C7.93221 17.9983 8.31448 17.808 8.59813 17.469L13.8868 11.0509C14.0225 10.8874 14.1071 10.6719 14.1261 10.4411L14.8521 1.09388C14.8632 0.947454 14.8476 0.799861 14.8062 0.661621C14.7648 0.523381 14.6988 0.397898 14.6129 0.294116C14.5272 0.189949 14.4236 0.109958 14.3095 0.0598464C14.1955 0.0097344 14.0736 -0.00926534 13.9528 0.0042017L6.23845 0.883941C6.04801 0.906929 5.87009 1.00942 5.73516 1.17385L0.438241 7.58195C0.157608 7.92301 2.00628e-05 8.38497 2.00628e-05 8.86657C2.00628e-05 9.34818 0.157608 9.81013 0.438241 10.1512L6.47772 17.469C6.75833 17.8074 7.13789 17.9978 7.5338 17.9989V17.9989ZM12.4842 9.89127L7.5338 15.8895L1.71709 8.84158L6.66748 2.84336L13.1112 2.11358L12.4842 9.89127Z" fill="#000103" fill-opacity="0.7"/>
<path d="M9.48884 8.00293C8.80513 8.00293 8.25088 7.33136 8.25088 6.50293C8.25088 5.6745 8.80513 5.00293 9.48884 5.00293C10.1726 5.00293 10.7268 5.6745 10.7268 6.50293C10.7268 7.33136 10.1726 8.00293 9.48884 8.00293Z" fill="#000103" fill-opacity="0.7"/>
</svg>
