<svg width="130" height="30" viewBox="0 0 130 30" fill="none" xmlns="http://www.w3.org/2000/svg">
<path d="M116 29C123.254 29 129 22.6551 129 15C129 7.34488 123.254 1 116 1C108.746 1 103 7.34488 103 15C103 22.6551 108.746 29 116 29Z" fill="#1849C6" stroke="#1849C6" stroke-width="2"/>
<path d="M14 29C21.2536 29 27 22.6551 27 15C27 7.34488 21.2536 1 14 1C6.74644 1 1 7.34488 1 15C1 22.6551 6.74644 29 14 29Z" fill="#E8EFFF" stroke="#1849C6" stroke-width="2"/>
<path d="M82 29C89.2536 29 95 22.6551 95 15C95 7.34488 89.2536 1 82 1C74.7464 1 69 7.34488 69 15C69 22.6551 74.7464 29 82 29Z" fill="#E8EFFF" stroke="#1849C6" stroke-width="2"/>
<path d="M48 29C55.2536 29 61 22.6551 61 15C61 7.34488 55.2536 1 48 1C40.7464 1 35 7.34488 35 15C35 22.6551 40.7464 29 48 29Z" fill="#E8EFFF" stroke="#1849C6" stroke-width="2"/>
</svg>
