<svg width="15" height="19" viewBox="0 0 15 19" fill="none" xmlns="http://www.w3.org/2000/svg">
<path d="M13.1636 8.01298C13.1636 6.47312 12.5395 4.99633 11.4286 3.90748C10.3177 2.81863 8.81105 2.20692 7.24 2.20692C5.66895 2.20692 4.16225 2.81863 3.05136 3.90748C1.94046 4.99633 1.31636 6.47312 1.31636 8.01298C1.31636 10.3948 3.26063 13.4991 7.24 17.2175C11.2194 13.4991 13.1636 10.3948 13.1636 8.01298ZM7.24 18.98C2.41289 14.6796 0 11.0231 0 8.01298C0 6.13093 0.762784 4.32596 2.12055 2.99514C3.47831 1.66433 5.31983 0.916687 7.24 0.916687C9.16017 0.916687 11.0017 1.66433 12.3595 2.99514C13.7172 4.32596 14.48 6.13093 14.48 8.01298C14.48 11.0231 12.0671 14.6796 7.24 18.98Z" fill="#000103" fill-opacity="0.7"/>
<path d="M7.23994 9.9483C7.76363 9.9483 8.26586 9.74439 8.63616 9.38144C9.00646 9.0185 9.21449 8.52623 9.21449 8.01294C9.21449 7.49965 9.00646 7.00739 8.63616 6.64444C8.26586 6.28149 7.76363 6.07759 7.23994 6.07759C6.71626 6.07759 6.21403 6.28149 5.84373 6.64444C5.47343 7.00739 5.2654 7.49965 5.2654 8.01294C5.2654 8.52623 5.47343 9.0185 5.84373 9.38144C6.21403 9.74439 6.71626 9.9483 7.23994 9.9483V9.9483ZM7.23994 11.2385C6.36714 11.2385 5.53009 10.8987 4.91292 10.2938C4.29576 9.68886 3.94904 8.86842 3.94904 8.01294C3.94904 7.15746 4.29576 6.33702 4.91292 5.73211C5.53009 5.12719 6.36714 4.78735 7.23994 4.78735C8.11275 4.78735 8.9498 5.12719 9.56697 5.73211C10.1841 6.33702 10.5309 7.15746 10.5309 8.01294C10.5309 8.86842 10.1841 9.68886 9.56697 10.2938C8.9498 10.8987 8.11275 11.2385 7.23994 11.2385Z" fill="#000103" fill-opacity="0.7"/>
</svg>
