<svg width="15" height="19" viewBox="0 0 15 19" fill="none" xmlns="http://www.w3.org/2000/svg">
<path d="M13.2186 7.52598C13.2186 5.98612 12.5945 4.50933 11.4836 3.42048C10.3727 2.33163 8.86605 1.71992 7.295 1.71992C5.72395 1.71992 4.21725 2.33163 3.10636 3.42048C1.99546 4.50933 1.37136 5.98612 1.37136 7.52598C1.37136 9.90776 3.31563 13.0121 7.295 16.7305C11.2744 13.0121 13.2186 9.90776 13.2186 7.52598ZM7.295 18.493C2.46789 14.1926 0.0550003 10.5361 0.0550003 7.52598C0.0550003 5.64393 0.817784 3.83896 2.17555 2.50814C3.53331 1.17733 5.37483 0.429688 7.295 0.429688C9.21517 0.429688 11.0567 1.17733 12.4145 2.50814C13.7722 3.83896 14.535 5.64393 14.535 7.52598C14.535 10.5361 12.1221 14.1926 7.295 18.493Z" fill="#000103" fill-opacity="0.7"/>
<path d="M7.29498 9.46124C7.81866 9.46124 8.32089 9.25733 8.69119 8.89438C9.06149 8.53143 9.26952 8.03917 9.26952 7.52588C9.26952 7.01259 9.06149 6.52033 8.69119 6.15738C8.32089 5.79443 7.81866 5.59053 7.29498 5.59053C6.77129 5.59053 6.26906 5.79443 5.89876 6.15738C5.52846 6.52033 5.32043 7.01259 5.32043 7.52588C5.32043 8.03917 5.52846 8.53143 5.89876 8.89438C6.26906 9.25733 6.77129 9.46124 7.29498 9.46124V9.46124ZM7.29498 10.7515C6.42217 10.7515 5.58512 10.4116 4.96795 9.80672C4.35079 9.2018 4.00407 8.38136 4.00407 7.52588C4.00407 6.6704 4.35079 5.84996 4.96795 5.24505C5.58512 4.64013 6.42217 4.30029 7.29498 4.30029C8.16778 4.30029 9.00483 4.64013 9.622 5.24505C10.2392 5.84996 10.5859 6.6704 10.5859 7.52588C10.5859 8.38136 10.2392 9.2018 9.622 9.80672C9.00483 10.4116 8.16778 10.7515 7.29498 10.7515Z" fill="#000103" fill-opacity="0.7"/>
</svg>
