<svg width="15" height="19" viewBox="0 0 15 19" fill="none" xmlns="http://www.w3.org/2000/svg">
<path d="M13.2186 7.52598C13.2186 5.98612 12.5945 4.50933 11.4836 3.42048C10.3727 2.33163 8.86604 1.71992 7.29499 1.71992C5.72395 1.71992 4.21725 2.33163 3.10635 3.42048C1.99545 4.50933 1.37136 5.98612 1.37136 7.52598C1.37136 9.90776 3.31563 13.0121 7.29499 16.7305C11.2744 13.0121 13.2186 9.90776 13.2186 7.52598ZM7.29499 18.493C2.46789 14.1926 0.0549927 10.5361 0.0549927 7.52598C0.0549927 5.64393 0.817776 3.83896 2.17554 2.50814C3.5333 1.17733 5.37483 0.429688 7.29499 0.429688C9.21516 0.429688 11.0567 1.17733 12.4144 2.50814C13.7722 3.83896 14.535 5.64393 14.535 7.52598C14.535 10.5361 12.1221 14.1926 7.29499 18.493Z" fill="#000103" fill-opacity="0.7"/>
<path d="M7.29494 9.46124C7.81862 9.46124 8.32085 9.25733 8.69115 8.89438C9.06145 8.53143 9.26948 8.03917 9.26948 7.52588C9.26948 7.01259 9.06145 6.52033 8.69115 6.15738C8.32085 5.79443 7.81862 5.59053 7.29494 5.59053C6.77126 5.59053 6.26902 5.79443 5.89872 6.15738C5.52842 6.52033 5.32039 7.01259 5.32039 7.52588C5.32039 8.03917 5.52842 8.53143 5.89872 8.89438C6.26902 9.25733 6.77126 9.46124 7.29494 9.46124V9.46124ZM7.29494 10.7515C6.42213 10.7515 5.58508 10.4116 4.96791 9.80672C4.35075 9.2018 4.00403 8.38136 4.00403 7.52588C4.00403 6.6704 4.35075 5.84996 4.96791 5.24505C5.58508 4.64013 6.42213 4.30029 7.29494 4.30029C8.16774 4.30029 9.0048 4.64013 9.62196 5.24505C10.2391 5.84996 10.5858 6.6704 10.5858 7.52588C10.5858 8.38136 10.2391 9.2018 9.62196 9.80672C9.0048 10.4116 8.16774 10.7515 7.29494 10.7515Z" fill="#000103" fill-opacity="0.7"/>
</svg>
