<svg width="15" height="18" viewBox="0 0 15 18" fill="none" xmlns="http://www.w3.org/2000/svg">
<path d="M7.66447 17.9989C8.06289 17.9983 8.44516 17.808 8.72881 17.469L14.0175 11.0509C14.1532 10.8874 14.2378 10.6719 14.2567 10.4411L14.9828 1.09388C14.9939 0.947454 14.9782 0.799861 14.9369 0.661621C14.8955 0.523381 14.8295 0.397898 14.7435 0.294116C14.6579 0.189949 14.5543 0.109958 14.4402 0.0598464C14.3261 0.0097344 14.2043 -0.00926534 14.0835 0.0042017L6.36912 0.883941C6.17869 0.906929 6.00077 1.00942 5.86583 1.17385L0.568918 7.58195C0.288285 7.92301 0.130696 8.38497 0.130696 8.86657C0.130696 9.34818 0.288285 9.81013 0.568918 10.1512L6.60839 17.469C6.88901 17.8074 7.26857 17.9978 7.66447 17.9989V17.9989ZM12.6149 9.89127L7.66447 15.8895L1.84777 8.84158L6.79816 2.84336L13.2419 2.11358L12.6149 9.89127Z" fill="#000103" fill-opacity="0.7"/>
<path d="M9.61949 8.00293C8.93578 8.00293 8.38152 7.33136 8.38152 6.50293C8.38152 5.6745 8.93578 5.00293 9.61949 5.00293C10.3032 5.00293 10.8575 5.6745 10.8575 6.50293C10.8575 7.33136 10.3032 8.00293 9.61949 8.00293Z" fill="#000103" fill-opacity="0.7"/>
</svg>
