<svg width="15" height="19" viewBox="0 0 15 19" fill="none" xmlns="http://www.w3.org/2000/svg">
<path d="M13.1636 8.01292C13.1636 6.47306 12.5395 4.99627 11.4286 3.90742C10.3177 2.81857 8.81105 2.20686 7.24 2.20686C5.66895 2.20686 4.16225 2.81857 3.05136 3.90742C1.94046 4.99627 1.31636 6.47306 1.31636 8.01292C1.31636 10.3947 3.26063 13.499 7.24 17.2175C11.2194 13.499 13.1636 10.3947 13.1636 8.01292ZM7.24 18.9799C2.41289 14.6796 0 11.023 0 8.01292C0 6.13087 0.762784 4.3259 2.12055 2.99508C3.47831 1.66427 5.31983 0.916626 7.24 0.916626C9.16017 0.916626 11.0017 1.66427 12.3595 2.99508C13.7172 4.3259 14.48 6.13087 14.48 8.01292C14.48 11.023 12.0671 14.6796 7.24 18.9799Z" fill="#000103" fill-opacity="0.7"/>
<path d="M7.23998 9.9483C7.76366 9.9483 8.26589 9.74439 8.63619 9.38144C9.00649 9.0185 9.21452 8.52623 9.21452 8.01294C9.21452 7.49965 9.00649 7.00739 8.63619 6.64444C8.26589 6.28149 7.76366 6.07759 7.23998 6.07759C6.71629 6.07759 6.21406 6.28149 5.84376 6.64444C5.47346 7.00739 5.26543 7.49965 5.26543 8.01294C5.26543 8.52623 5.47346 9.0185 5.84376 9.38144C6.21406 9.74439 6.71629 9.9483 7.23998 9.9483V9.9483ZM7.23998 11.2385C6.36717 11.2385 5.53012 10.8987 4.91295 10.2938C4.29579 9.68886 3.94907 8.86842 3.94907 8.01294C3.94907 7.15746 4.29579 6.33702 4.91295 5.73211C5.53012 5.12719 6.36717 4.78735 7.23998 4.78735C8.11278 4.78735 8.94983 5.12719 9.567 5.73211C10.1842 6.33702 10.5309 7.15746 10.5309 8.01294C10.5309 8.86842 10.1842 9.68886 9.567 10.2938C8.94983 10.8987 8.11278 11.2385 7.23998 11.2385Z" fill="#000103" fill-opacity="0.7"/>
</svg>
