<svg width="180" height="37" viewBox="0 0 180 37" fill="none" xmlns="http://www.w3.org/2000/svg">
<ellipse cx="16.6803" cy="18.095" rx="16.5136" ry="18.095" fill="#1849C6"/>
<path fill-rule="evenodd" clip-rule="evenodd" d="M18.3684 13.8325V11.4387C18.3684 10.358 18.595 9.81139 20.1872 9.81139H22.1849V5.79028H18.8514C14.7666 5.79028 13.4189 7.76314 13.4189 11.1497V13.8325H10.7354V17.8536H13.4189V29.9169H18.3684V17.8536H21.7317L22.1849 13.8325H18.3684V13.8325Z" fill="white"/>
<ellipse cx="65.5607" cy="18.095" rx="16.5136" ry="18.095" fill="#1849C6"/>
<path fill-rule="evenodd" clip-rule="evenodd" d="M72.4396 9.65063H59.2087C58.4861 9.65063 57.8542 10.2208 57.8542 11.0036V25.5331C57.8542 26.3205 58.4861 27.0218 59.2087 27.0218H72.4354C73.1622 27.0218 73.7073 26.3159 73.7073 25.5331V11.0036C73.7114 10.2208 73.1622 9.65063 72.4396 9.65063V9.65063ZM62.7683 24.1303H60.4971V16.3927H62.7683V24.1303V24.1303ZM61.7112 15.2163H61.6947C60.9679 15.2163 60.4971 14.6235 60.4971 13.8814C60.4971 13.1257 60.9803 12.5466 61.7236 12.5466C62.4669 12.5466 62.9211 13.1212 62.9377 13.8814C62.9377 14.6235 62.4669 15.2163 61.7112 15.2163V15.2163ZM71.0686 24.1303H68.7973V19.8995C68.7973 18.886 68.467 18.1937 67.6452 18.1937C67.0175 18.1937 66.6459 18.6597 66.4807 19.1122C66.4188 19.2751 66.4023 19.4968 66.4023 19.7231V24.1303H64.131V16.3927H66.4023V17.4697C66.7326 16.9538 67.2488 16.2117 68.4505 16.2117C69.9412 16.2117 71.0686 17.2887 71.0686 19.61V24.1303V24.1303Z" fill="white"/>
<ellipse cx="114.441" cy="18.095" rx="16.5136" ry="18.095" fill="#1849C6"/>
<path fill-rule="evenodd" clip-rule="evenodd" d="M123.468 12.4453C122.819 12.755 122.125 12.964 121.393 13.0606C122.14 12.578 122.714 11.814 122.983 10.9052C122.285 11.3516 121.512 11.6773 120.688 11.8502C120.027 11.0902 119.086 10.6157 118.049 10.6157C116.052 10.6157 114.435 12.3609 114.435 14.5122C114.435 14.8178 114.465 15.1153 114.529 15.4008C111.524 15.24 108.859 13.6878 107.078 11.3275C106.768 11.9025 106.589 12.574 106.589 13.2857C106.589 14.6368 107.231 15.8311 108.202 16.5308C107.605 16.5147 107.045 16.3378 106.559 16.0442C106.559 16.0603 106.559 16.0764 106.559 16.0925C106.559 17.9824 107.806 19.5546 109.46 19.9125C109.157 20.001 108.836 20.0492 108.508 20.0492C108.276 20.0492 108.049 20.0251 107.828 19.9769C108.288 21.525 109.624 22.6509 111.207 22.6831C109.971 23.7285 108.411 24.3518 106.716 24.3518C106.425 24.3518 106.138 24.3317 105.854 24.2955C107.448 25.4134 109.348 26.0568 111.386 26.0568C118.041 26.0568 121.677 20.1176 121.677 14.9666C121.677 14.7977 121.673 14.6288 121.666 14.4639C122.371 13.913 122.983 13.2294 123.468 12.4453V12.4453Z" fill="white"/>
<ellipse cx="163.321" cy="18.095" rx="16.5136" ry="18.095" fill="#1849C6"/>
<ellipse cx="163.321" cy="18.3362" rx="3.08254" ry="3.37773" fill="white"/>
<path fill-rule="evenodd" clip-rule="evenodd" d="M160.571 14.8021C161.37 13.9272 162.431 13.4402 163.56 13.4402C164.69 13.4402 165.751 13.9298 166.55 14.8047C167.056 15.3598 167.418 16.0269 167.615 16.7714H170.789V12.0977C170.789 11.0013 170.015 10.1538 169.015 10.1538H158.144C157.143 10.1538 156.294 11.0013 156.294 12.0977V16.7714H159.505C159.703 16.0269 160.064 15.3573 160.571 14.8021V14.8021ZM169.581 13.5947C169.581 13.8871 169.364 14.1242 169.098 14.1242H167.648C167.381 14.1242 167.165 13.8872 167.165 13.5947V12.0065C167.165 11.7142 167.381 11.4771 167.648 11.4771H169.098C169.364 11.4771 169.581 11.7141 169.581 12.0065V13.5947V13.5947Z" fill="white"/>
<path fill-rule="evenodd" clip-rule="evenodd" d="M166.55 21.3533C165.751 22.2282 164.69 22.7049 163.56 22.7049C162.431 22.7049 161.37 22.2308 160.571 21.3559C159.774 20.4826 159.335 19.2944 159.333 18.095H156.294V24.0094C156.294 25.1059 157.143 26.0361 158.144 26.0361H169.015C170.015 26.0361 170.789 25.1059 170.789 24.0094V18.095H167.788C167.786 19.2944 167.347 20.48 166.55 21.3533V21.3533Z" fill="white"/>
</svg>
