<svg width="15" height="15" viewBox="0 0 15 15" fill="none" xmlns="http://www.w3.org/2000/svg">
<path d="M2.94125 0.78894C2.16118 0.78894 1.41306 1.09267 0.861472 1.63331C0.309881 2.17396 0 2.90723 0 3.67181V6.33292C3.79355e-09 6.50936 0.0715109 6.67858 0.198801 6.80334C0.326091 6.92811 0.498734 6.9982 0.67875 6.9982C0.858766 6.9982 1.03141 6.92811 1.1587 6.80334C1.28599 6.67858 1.3575 6.50936 1.3575 6.33292V3.67181C1.3575 2.81493 2.06702 2.1195 2.94125 2.1195H5.65625C5.83627 2.1195 6.00891 2.0494 6.1362 1.92464C6.26349 1.79988 6.335 1.63066 6.335 1.45422C6.335 1.27778 6.26349 1.10856 6.1362 0.983796C6.00891 0.859032 5.83627 0.78894 5.65625 0.78894H2.94125ZM8.82375 0.78894C8.64373 0.78894 8.47109 0.859032 8.3438 0.983796C8.21651 1.10856 8.145 1.27778 8.145 1.45422C8.145 1.63066 8.21651 1.79988 8.3438 1.92464C8.47109 2.0494 8.64373 2.1195 8.82375 2.1195H11.5387C12.413 2.1195 13.1225 2.81493 13.1225 3.67181V6.33292C13.1225 6.50936 13.194 6.67858 13.3213 6.80334C13.4486 6.92811 13.6212 6.9982 13.8012 6.9982C13.9813 6.9982 14.1539 6.92811 14.2812 6.80334C14.4085 6.67858 14.48 6.50936 14.48 6.33292V3.67181C14.48 2.90723 14.1701 2.17396 13.6185 1.63331C13.0669 1.09267 12.3188 0.78894 11.5387 0.78894H8.82375ZM0.67875 8.77227C0.858766 8.77227 1.03141 8.84237 1.1587 8.96713C1.28599 9.09189 1.3575 9.26111 1.3575 9.43755V12.0987C1.3575 12.9555 2.06702 13.651 2.94125 13.651H5.65625C5.83627 13.651 6.00891 13.7211 6.1362 13.8458C6.26349 13.9706 6.335 14.1398 6.335 14.3163C6.335 14.4927 6.26349 14.6619 6.1362 14.7867C6.00891 14.9114 5.83627 14.9815 5.65625 14.9815H2.94125C2.16118 14.9815 1.41306 14.6778 0.861472 14.1372C0.309881 13.5965 0 12.8632 0 12.0987V9.43755C0 9.26111 0.0715109 9.09189 0.198801 8.96713C0.326091 8.84237 0.498734 8.77227 0.67875 8.77227V8.77227ZM14.48 9.43755C14.48 9.26111 14.4085 9.09189 14.2812 8.96713C14.1539 8.84237 13.9813 8.77227 13.8012 8.77227C13.6212 8.77227 13.4486 8.84237 13.3213 8.96713C13.194 9.09189 13.1225 9.26111 13.1225 9.43755V12.0987C13.1225 12.5104 12.9556 12.9052 12.6586 13.1963C12.3616 13.4874 11.9588 13.651 11.5387 13.651H8.82375C8.64373 13.651 8.47109 13.7211 8.3438 13.8458C8.21651 13.9706 8.145 14.1398 8.145 14.3163C8.145 14.4927 8.21651 14.6619 8.3438 14.7867C8.47109 14.9114 8.64373 14.9815 8.82375 14.9815H11.5387C12.3188 14.9815 13.0669 14.6778 13.6185 14.1372C14.1701 13.5965 14.48 12.8632 14.48 12.0987V9.43755Z" fill="#000103" fill-opacity="0.7"/>
</svg>
