<svg width="20" height="15" viewBox="0 0 20 15" fill="none" xmlns="http://www.w3.org/2000/svg">
<path d="M4.18225 4.4312C4.18225 3.84304 4.42063 3.27897 4.84494 2.86307C5.26926 2.44718 5.84475 2.21353 6.44483 2.21353C7.0449 2.21353 7.6204 2.44718 8.04471 2.86307C8.46903 3.27897 8.70741 3.84304 8.70741 4.4312C8.70741 5.01936 8.46903 5.58344 8.04471 5.99933C7.6204 6.41523 7.0449 6.64887 6.44483 6.64887C5.84475 6.64887 5.26926 6.41523 4.84494 5.99933C4.42063 5.58344 4.18225 5.01936 4.18225 4.4312V4.4312ZM6.44483 0.946289C5.50186 0.946289 4.5975 1.31345 3.93072 1.967C3.26394 2.62054 2.88934 3.50695 2.88934 4.4312C2.88934 5.35546 3.26394 6.24186 3.93072 6.89541C4.5975 7.54896 5.50186 7.91611 6.44483 7.91611C7.3878 7.91611 8.29215 7.54896 8.95894 6.89541C9.62572 6.24186 10.0003 5.35546 10.0003 4.4312C10.0003 3.50695 9.62572 2.62054 8.95894 1.967C8.29215 1.31345 7.3878 0.946289 6.44483 0.946289ZM13.2326 5.38163C13.2326 5.04554 13.3688 4.72321 13.6113 4.48556C13.8537 4.2479 14.1826 4.11439 14.5255 4.11439C14.8684 4.11439 15.1972 4.2479 15.4397 4.48556C15.6822 4.72321 15.8184 5.04554 15.8184 5.38163C15.8184 5.71773 15.6822 6.04005 15.4397 6.27771C15.1972 6.51536 14.8684 6.64887 14.5255 6.64887C14.1826 6.64887 13.8537 6.51536 13.6113 6.27771C13.3688 6.04005 13.2326 5.71773 13.2326 5.38163ZM14.5255 2.84715C13.8397 2.84715 13.182 3.11418 12.697 3.58948C12.2121 4.06479 11.9397 4.70945 11.9397 5.38163C11.9397 6.05382 12.2121 6.69847 12.697 7.17378C13.182 7.64909 13.8397 7.91611 14.5255 7.91611C15.2113 7.91611 15.869 7.64909 16.3539 7.17378C16.8388 6.69847 17.1113 6.05382 17.1113 5.38163C17.1113 4.70945 16.8388 4.06479 16.3539 3.58948C15.869 3.11418 15.2113 2.84715 14.5255 2.84715V2.84715ZM0.949989 11.0842C0.949989 10.5801 1.15431 10.0966 1.51801 9.7401C1.88171 9.38362 2.375 9.18336 2.88934 9.18336H10.0003C10.5147 9.18336 11.0079 9.38362 11.3716 9.7401C11.7353 10.0966 11.9397 10.5801 11.9397 11.0842V11.2274C11.9384 11.2865 11.9341 11.3455 11.9267 11.4042C11.9138 11.5138 11.8899 11.6627 11.8427 11.8389C11.7185 12.3035 11.4987 12.7384 11.1969 13.1169C10.4405 14.0686 9.01771 14.8859 6.44483 14.8859C3.87195 14.8859 2.44976 14.0686 1.69276 13.1169C1.39068 12.7385 1.1707 12.3036 1.04631 11.8389C0.996933 11.6525 0.965337 11.462 0.951929 11.2699C0.951304 11.2557 0.950873 11.2416 0.950636 11.2274V11.2128L0.949989 11.2078V11.0842ZM2.24289 11.197V11.2046C2.25185 11.3111 2.27024 11.4167 2.29784 11.5201C2.35602 11.7406 2.47432 12.0384 2.71222 12.3382C3.16796 12.9109 4.16932 13.6187 6.44483 13.6187C8.72034 13.6187 9.72234 12.9109 10.1774 12.3388C10.3707 12.0963 10.5115 11.8178 10.5912 11.5201C10.619 11.4167 10.6376 11.3112 10.6468 11.2046L10.6474 11.197V11.0842C10.6474 10.9162 10.5793 10.755 10.4581 10.6362C10.3368 10.5174 10.1724 10.4506 10.001 10.4506H2.88934C2.71789 10.4506 2.55347 10.5174 2.43223 10.6362C2.311 10.755 2.24289 10.9162 2.24289 11.0842V11.197ZM12.248 13.2968C12.8492 13.497 13.5972 13.6187 14.5255 13.6187C16.5948 13.6187 17.7707 13.0149 18.4126 12.2723C18.7248 11.9111 18.8845 11.5449 18.9653 11.2635C19.0089 11.1127 19.0368 10.9579 19.0487 10.8016L19.0493 10.7788L19.05 10.7649V10.7408C19.0501 10.5362 19.009 10.3337 18.9292 10.1447C18.8494 9.95569 18.7323 9.78397 18.5848 9.63933C18.4372 9.4947 18.262 9.37998 18.0692 9.30174C17.8764 9.2235 17.6697 9.18327 17.461 9.18336H12.1672C12.4904 9.53755 12.7251 9.97095 12.8363 10.4506H17.461C17.6226 10.4506 17.7532 10.5767 17.7571 10.7332C17.7507 10.7962 17.7386 10.8586 17.7209 10.9195C17.6808 11.0589 17.5981 11.254 17.4255 11.4536C17.0984 11.8332 16.3349 12.3515 14.5255 12.3515C13.7724 12.3515 13.2009 12.2615 12.7665 12.1297C12.6515 12.541 12.4769 12.9341 12.248 13.2968V13.2968Z" fill="#000103" fill-opacity="0.7"/>
</svg>
