<svg width="19" height="15" viewBox="0 0 19 15" fill="none" xmlns="http://www.w3.org/2000/svg">
<path d="M3.23726 3.94439C3.23726 3.35622 3.47564 2.79215 3.89996 2.37625C4.32427 1.96036 4.89977 1.72671 5.49984 1.72671C6.09992 1.72671 6.67541 1.96036 7.09973 2.37625C7.52405 2.79215 7.76242 3.35622 7.76242 3.94439C7.76242 4.53255 7.52405 5.09662 7.09973 5.51252C6.67541 5.92841 6.09992 6.16206 5.49984 6.16206C4.89977 6.16206 4.32427 5.92841 3.89996 5.51252C3.47564 5.09662 3.23726 4.53255 3.23726 3.94439V3.94439ZM5.49984 0.459473C4.55687 0.459473 3.65252 0.826632 2.98574 1.48018C2.31895 2.13373 1.94436 3.02013 1.94436 3.94439C1.94436 4.86864 2.31895 5.75504 2.98574 6.40859C3.65252 7.06214 4.55687 7.4293 5.49984 7.4293C6.44282 7.4293 7.34717 7.06214 8.01395 6.40859C8.68073 5.75504 9.05533 4.86864 9.05533 3.94439C9.05533 3.02013 8.68073 2.13373 8.01395 1.48018C7.34717 0.826632 6.44282 0.459473 5.49984 0.459473ZM12.2876 4.89482C12.2876 4.55872 12.4238 4.2364 12.6663 3.99874C12.9087 3.76109 13.2376 3.62758 13.5805 3.62758C13.9234 3.62758 14.2522 3.76109 14.4947 3.99874C14.7372 4.2364 14.8734 4.55872 14.8734 4.89482C14.8734 5.23091 14.7372 5.55324 14.4947 5.79089C14.2522 6.02854 13.9234 6.16206 13.5805 6.16206C13.2376 6.16206 12.9087 6.02854 12.6663 5.79089C12.4238 5.55324 12.2876 5.23091 12.2876 4.89482ZM13.5805 2.36033C12.8947 2.36033 12.237 2.62736 11.752 3.10267C11.2671 3.57797 10.9947 4.22263 10.9947 4.89482C10.9947 5.567 11.2671 6.21166 11.752 6.68697C12.237 7.16227 12.8947 7.4293 13.5805 7.4293C14.2663 7.4293 14.924 7.16227 15.4089 6.68697C15.8939 6.21166 16.1663 5.567 16.1663 4.89482C16.1663 4.22263 15.8939 3.57797 15.4089 3.10267C14.924 2.62736 14.2663 2.36033 13.5805 2.36033V2.36033ZM0.00500488 10.5974C0.00500488 10.0933 0.209329 9.60977 0.573029 9.25329C0.936728 8.89681 1.43001 8.69654 1.94436 8.69654H9.05533C9.56968 8.69654 10.063 8.89681 10.4267 9.25329C10.7904 9.60977 10.9947 10.0933 10.9947 10.5974V10.7406C10.9934 10.7997 10.9891 10.8587 10.9818 10.9174C10.9688 11.027 10.9449 11.1759 10.8977 11.352C10.7735 11.8167 10.5538 12.2516 10.2519 12.6301C9.49556 13.5818 8.07272 14.3991 5.49984 14.3991C2.92697 14.3991 1.50477 13.5818 0.747778 12.6301C0.445697 12.2517 0.225711 11.8168 0.101326 11.352C0.0519488 11.1657 0.0203524 10.9752 0.00694425 10.7831C0.00631928 10.7689 0.00588821 10.7548 0.00565129 10.7406V10.726L0.00500488 10.721V10.5974ZM1.29791 10.7102V10.7178C1.30687 10.8243 1.32525 10.9299 1.35286 11.0333C1.41104 11.2538 1.52934 11.5516 1.76723 11.8513C2.22298 12.4241 3.22433 13.1319 5.49984 13.1319C7.77535 13.1319 8.77735 12.4241 9.23246 11.852C9.42574 11.6095 9.56652 11.331 9.64618 11.0333C9.67399 10.9299 9.69259 10.8243 9.70178 10.7178L9.70243 10.7102V10.5974C9.70243 10.4294 9.63432 10.2682 9.51308 10.1494C9.39185 10.0305 9.22742 9.96378 9.05597 9.96378H1.94436C1.77291 9.96378 1.60848 10.0305 1.48725 10.1494C1.36602 10.2682 1.29791 10.4294 1.29791 10.5974V10.7102ZM11.303 12.81C11.9042 13.0102 12.6522 13.1319 13.5805 13.1319C15.6498 13.1319 16.8257 12.528 17.4676 11.7854C17.7798 11.4243 17.9395 11.058 18.0203 10.7767C18.0639 10.6259 18.0918 10.4711 18.1037 10.3148L18.1044 10.292L18.105 10.2781V10.254C18.1051 10.0494 18.064 9.84687 17.9842 9.65787C17.9044 9.46888 17.7874 9.29716 17.6398 9.15252C17.4922 9.00788 17.317 8.89316 17.1242 8.81492C16.9314 8.73668 16.7247 8.69646 16.516 8.69654H11.2222C11.5455 9.05073 11.7801 9.48413 11.8913 9.96378H16.516C16.6776 9.96378 16.8082 10.0899 16.8121 10.2464C16.8057 10.3094 16.7936 10.3718 16.7759 10.4327C16.7358 10.5721 16.6531 10.7672 16.4805 10.9668C16.1534 11.3463 15.3899 11.8646 13.5805 11.8646C12.8274 11.8646 12.2559 11.7747 11.8215 11.6429C11.7065 12.0542 11.5319 12.4473 11.303 12.81V12.81Z" fill="#000103" fill-opacity="0.7"/>
</svg>
