<svg width="15" height="15" viewBox="0 0 15 15" fill="none" xmlns="http://www.w3.org/2000/svg">
<path d="M2.94125 0.788818C2.16118 0.788818 1.41306 1.09255 0.861472 1.63319C0.309881 2.17383 0 2.9071 0 3.67169V6.3328C3.79355e-09 6.50924 0.0715109 6.67846 0.198801 6.80322C0.326091 6.92799 0.498734 6.99808 0.67875 6.99808C0.858766 6.99808 1.03141 6.92799 1.1587 6.80322C1.28599 6.67846 1.3575 6.50924 1.3575 6.3328V3.67169C1.3575 2.81481 2.06702 2.11937 2.94125 2.11937H5.65625C5.83627 2.11937 6.00891 2.04928 6.1362 1.92452C6.26349 1.79975 6.335 1.63054 6.335 1.4541C6.335 1.27765 6.26349 1.10844 6.1362 0.983674C6.00891 0.85891 5.83627 0.788818 5.65625 0.788818H2.94125ZM8.82375 0.788818C8.64373 0.788818 8.47109 0.85891 8.3438 0.983674C8.21651 1.10844 8.145 1.27765 8.145 1.4541C8.145 1.63054 8.21651 1.79975 8.3438 1.92452C8.47109 2.04928 8.64373 2.11937 8.82375 2.11937H11.5387C12.413 2.11937 13.1225 2.81481 13.1225 3.67169V6.3328C13.1225 6.50924 13.194 6.67846 13.3213 6.80322C13.4486 6.92799 13.6212 6.99808 13.8012 6.99808C13.9813 6.99808 14.1539 6.92799 14.2812 6.80322C14.4085 6.67846 14.48 6.50924 14.48 6.3328V3.67169C14.48 2.9071 14.1701 2.17383 13.6185 1.63319C13.0669 1.09255 12.3188 0.788818 11.5387 0.788818H8.82375ZM0.67875 8.77215C0.858766 8.77215 1.03141 8.84224 1.1587 8.96701C1.28599 9.09177 1.3575 9.26099 1.3575 9.43743V12.0985C1.3575 12.9554 2.06702 13.6509 2.94125 13.6509H5.65625C5.83627 13.6509 6.00891 13.7209 6.1362 13.8457C6.26349 13.9705 6.335 14.1397 6.335 14.3161C6.335 14.4926 6.26349 14.6618 6.1362 14.7866C6.00891 14.9113 5.83627 14.9814 5.65625 14.9814H2.94125C2.16118 14.9814 1.41306 14.6777 0.861472 14.137C0.309881 13.5964 0 12.8631 0 12.0985V9.43743C0 9.26099 0.0715109 9.09177 0.198801 8.96701C0.326091 8.84224 0.498734 8.77215 0.67875 8.77215V8.77215ZM14.48 9.43743C14.48 9.26099 14.4085 9.09177 14.2812 8.96701C14.1539 8.84224 13.9813 8.77215 13.8012 8.77215C13.6212 8.77215 13.4486 8.84224 13.3213 8.96701C13.194 9.09177 13.1225 9.26099 13.1225 9.43743V12.0985C13.1225 12.5102 12.9556 12.9051 12.6586 13.1962C12.3616 13.4873 11.9588 13.6509 11.5387 13.6509H8.82375C8.64373 13.6509 8.47109 13.7209 8.3438 13.8457C8.21651 13.9705 8.145 14.1397 8.145 14.3161C8.145 14.4926 8.21651 14.6618 8.3438 14.7866C8.47109 14.9113 8.64373 14.9814 8.82375 14.9814H11.5387C12.3188 14.9814 13.0669 14.6777 13.6185 14.137C14.1701 13.5964 14.48 12.8631 14.48 12.0985V9.43743Z" fill="#000103" fill-opacity="0.7"/>
</svg>
