<svg width="25" height="28" viewBox="0 0 25 28" fill="none" xmlns="http://www.w3.org/2000/svg">
<path d="M0 1.71875C0 0.769511 0.769511 0 1.71875 0H23.2812C24.2305 0 25 0.769511 25 1.71875V1.71875C25 2.66799 24.2305 3.4375 23.2812 3.4375H1.71875C0.769511 3.4375 0 2.66799 0 1.71875V1.71875ZM4.70455 4.8125C3.0477 4.8125 1.70455 6.15565 1.70455 7.8125V24.5C1.70455 26.1569 3.04769 27.5 4.70455 27.5H20.2955C21.9523 27.5 23.2955 26.1569 23.2955 24.5V7.8125C23.2955 6.15565 21.9523 4.8125 20.2955 4.8125H4.70455ZM16.4773 9.96875C16.4773 10.5383 16.0156 11 15.446 11H8.9858C8.41625 11 7.95455 10.5383 7.95455 9.96875V9.96875C7.95455 9.39921 8.41625 8.9375 8.9858 8.9375H15.446C16.0156 8.9375 16.4773 9.39921 16.4773 9.96875V9.96875Z" fill="#FFCE31"/>
</svg>
