<svg width="95" height="96" viewBox="0 0 95 96" fill="none" xmlns="http://www.w3.org/2000/svg">
<path opacity="0.43" d="M84.4196 18.0166L26.8556 0.708803C23.5842 -0.274833 20.115 0.313103 17.2115 2.34327C14.3079 4.37344 12.2077 7.67954 11.3729 11.5343L0.880751 59.9818C0.0459459 63.8365 0.544923 67.9241 2.26791 71.3454C3.9909 74.7666 6.79677 77.2412 10.0682 78.2249L67.6322 95.5326C70.9037 96.5163 74.3728 95.9283 77.2764 93.8982C80.1799 91.868 82.2802 88.5619 83.115 84.7072L93.6071 36.2596C94.4419 32.4049 93.9429 28.3173 92.2199 24.8961C90.4969 21.4748 87.6911 19.0002 84.4196 18.0166V18.0166ZM82.3212 27.7061L50.9051 41.3264C50.1879 41.5637 49.4304 41.5743 48.7086 41.3573C47.9869 41.1403 47.3263 40.7033 46.7934 40.0901L24.7572 10.3983L82.3212 27.7061Z" fill="white"/>
</svg>
