<svg width="18" height="16" viewBox="0 0 18 16" fill="none" xmlns="http://www.w3.org/2000/svg">
<path d="M4.62498 5.38587V2.72476C4.62498 2.25424 4.81568 1.803 5.15512 1.4703C5.49456 1.13759 5.95494 0.950684 6.43498 0.950684H15.485C15.965 0.950684 16.4254 1.13759 16.7648 1.4703C17.1043 1.803 17.295 2.25424 17.295 2.72476V13.3692C17.295 13.8397 17.1043 14.291 16.7648 14.6237C16.4254 14.9564 15.965 15.1433 15.485 15.1433H10.055M10.055 15.1433V9.66848C10.0549 9.19801 9.86412 8.74684 9.52465 8.41421L6.80965 5.7531C6.47023 5.42051 6.00993 5.23368 5.52998 5.23368C5.05003 5.23368 4.58974 5.42051 4.25031 5.7531L1.53531 8.41421C1.19585 8.74684 1.00508 9.19801 1.00498 9.66848V13.3692C1.00498 13.8397 1.19568 14.291 1.53512 14.6237C1.87456 14.9564 2.33494 15.1433 2.81498 15.1433H5.52998M10.055 15.1433H5.52998M5.52998 11.5951V15.1433M13.6759 4.49883H13.675M10.0559 4.49883H10.055M13.6759 8.04698H13.675M13.6759 11.5951H13.675" stroke="black" stroke-width="1.2" stroke-linecap="round" stroke-linejoin="round"/>
</svg>
