<svg width="18" height="17" viewBox="0 0 18 17" fill="none" xmlns="http://www.w3.org/2000/svg">
<path d="M4.56999 5.87269V3.21157C4.56999 2.74106 4.76069 2.28982 5.10013 1.95711C5.43957 1.62441 5.89995 1.4375 6.37999 1.4375H15.43C15.91 1.4375 16.3704 1.62441 16.7099 1.95711C17.0493 2.28982 17.24 2.74106 17.24 3.21157V13.856C17.24 14.3265 17.0493 14.7778 16.7099 15.1105C16.3704 15.4432 15.91 15.6301 15.43 15.6301H9.99999M9.99999 15.6301V10.1553C9.99989 9.68482 9.80912 9.23366 9.46966 8.90103L6.75466 6.23992C6.41523 5.90733 5.95494 5.72049 5.47499 5.72049C4.99504 5.72049 4.53474 5.90733 4.19532 6.23992L1.48032 8.90103C1.14085 9.23366 0.950092 9.68482 0.949989 10.1553V13.856C0.949989 14.3265 1.14069 14.7778 1.48013 15.1105C1.81957 15.4432 2.27995 15.6301 2.75999 15.6301H5.47499M9.99999 15.6301H5.47499M5.47499 12.0819V15.6301M13.6209 4.98565H13.62M10.0009 4.98565H9.99999M13.6209 8.5338H13.62M13.6209 12.0819H13.62" stroke="black" stroke-width="1.2" stroke-linecap="round" stroke-linejoin="round"/>
</svg>
