<svg width="16" height="18" viewBox="0 0 16 18" fill="none" xmlns="http://www.w3.org/2000/svg">
<path d="M8.1164 0C4.01626 0 0.696045 4.032 0.696045 9C0.696045 13.968 4.01626 18 8.1164 18C12.224 18 15.5516 13.973 15.5516 9C15.5516 4.02695 12.224 0 8.1164 0ZM8.12383 16.2C4.84075 16.2 2.1816 12.978 2.1816 9C2.1816 5.022 4.84075 1.8 8.12383 1.8C11.4069 1.8 14.0661 5.022 14.0661 9C14.0661 12.978 11.4069 16.2 8.12383 16.2ZM8.49522 4.5H7.38105V9.9L11.2806 12.735L11.8377 11.628L8.49522 9.225V4.5Z" fill="#000103" fill-opacity="0.7"/>
</svg>
