<svg width="19" height="15" viewBox="0 0 19 15" fill="none" xmlns="http://www.w3.org/2000/svg">
<path d="M3.23724 3.94439C3.23724 3.35622 3.47562 2.79215 3.89993 2.37625C4.32425 1.96036 4.89975 1.72671 5.49982 1.72671C6.09989 1.72671 6.67539 1.96036 7.09971 2.37625C7.52402 2.79215 7.7624 3.35622 7.7624 3.94439C7.7624 4.53255 7.52402 5.09662 7.09971 5.51252C6.67539 5.92841 6.09989 6.16206 5.49982 6.16206C4.89975 6.16206 4.32425 5.92841 3.89993 5.51252C3.47562 5.09662 3.23724 4.53255 3.23724 3.94439V3.94439ZM5.49982 0.459473C4.55685 0.459473 3.6525 0.826632 2.98571 1.48018C2.31893 2.13373 1.94434 3.02013 1.94434 3.94439C1.94434 4.86864 2.31893 5.75504 2.98571 6.40859C3.6525 7.06214 4.55685 7.4293 5.49982 7.4293C6.44279 7.4293 7.34715 7.06214 8.01393 6.40859C8.68071 5.75504 9.05531 4.86864 9.05531 3.94439C9.05531 3.02013 8.68071 2.13373 8.01393 1.48018C7.34715 0.826632 6.44279 0.459473 5.49982 0.459473ZM12.2876 4.89482C12.2876 4.55872 12.4238 4.2364 12.6662 3.99874C12.9087 3.76109 13.2376 3.62758 13.5805 3.62758C13.9234 3.62758 14.2522 3.76109 14.4947 3.99874C14.7372 4.2364 14.8734 4.55872 14.8734 4.89482C14.8734 5.23091 14.7372 5.55324 14.4947 5.79089C14.2522 6.02854 13.9234 6.16206 13.5805 6.16206C13.2376 6.16206 12.9087 6.02854 12.6662 5.79089C12.4238 5.55324 12.2876 5.23091 12.2876 4.89482ZM13.5805 2.36033C12.8947 2.36033 12.237 2.62736 11.752 3.10267C11.2671 3.57797 10.9947 4.22263 10.9947 4.89482C10.9947 5.567 11.2671 6.21166 11.752 6.68697C12.237 7.16227 12.8947 7.4293 13.5805 7.4293C14.2663 7.4293 14.924 7.16227 15.4089 6.68697C15.8938 6.21166 16.1663 5.567 16.1663 4.89482C16.1663 4.22263 15.8938 3.57797 15.4089 3.10267C14.924 2.62736 14.2663 2.36033 13.5805 2.36033V2.36033ZM0.00498199 10.5974C0.00498199 10.0933 0.209306 9.60977 0.573006 9.25329C0.936706 8.89681 1.42999 8.69654 1.94434 8.69654H9.05531C9.56965 8.69654 10.0629 8.89681 10.4266 9.25329C10.7903 9.60977 10.9947 10.0933 10.9947 10.5974V10.7406C10.9934 10.7997 10.9891 10.8587 10.9817 10.9174C10.9688 11.027 10.9449 11.1759 10.8977 11.352C10.7735 11.8167 10.5537 12.2516 10.2519 12.6301C9.49554 13.5818 8.0727 14.3991 5.49982 14.3991C2.92694 14.3991 1.50475 13.5818 0.747755 12.6301C0.445674 12.2517 0.225688 11.8168 0.101303 11.352C0.0519259 11.1657 0.0203295 10.9752 0.00692136 10.7831C0.00629639 10.7689 0.00586533 10.7548 0.0056284 10.7406V10.726L0.00498199 10.721V10.5974ZM1.29789 10.7102V10.7178C1.30684 10.8243 1.32523 10.9299 1.35283 11.0333C1.41101 11.2538 1.52931 11.5516 1.76721 11.8513C2.22296 12.4241 3.22431 13.1319 5.49982 13.1319C7.77533 13.1319 8.77733 12.4241 9.23243 11.852C9.42571 11.6095 9.56649 11.331 9.64616 11.0333C9.67397 10.9299 9.69257 10.8243 9.70176 10.7178L9.7024 10.7102V10.5974C9.7024 10.4294 9.6343 10.2682 9.51306 10.1494C9.39183 10.0305 9.2274 9.96378 9.05595 9.96378H1.94434C1.77289 9.96378 1.60846 10.0305 1.48723 10.1494C1.36599 10.2682 1.29789 10.4294 1.29789 10.5974V10.7102ZM11.303 12.81C11.9042 13.0102 12.6522 13.1319 13.5805 13.1319C15.6498 13.1319 16.8257 12.528 17.4676 11.7854C17.7798 11.4243 17.9395 11.058 18.0203 10.7767C18.0639 10.6259 18.0918 10.4711 18.1037 10.3148L18.1043 10.292L18.105 10.2781V10.254C18.1051 10.0494 18.064 9.84687 17.9842 9.65787C17.9044 9.46888 17.7873 9.29716 17.6398 9.15252C17.4922 9.00788 17.317 8.89316 17.1242 8.81492C16.9314 8.73668 16.7247 8.69646 16.516 8.69654H11.2222C11.5454 9.05073 11.7801 9.48413 11.8913 9.96378H16.516C16.6776 9.96378 16.8082 10.0899 16.8121 10.2464C16.8057 10.3094 16.7936 10.3718 16.7759 10.4327C16.7358 10.5721 16.6531 10.7672 16.4804 10.9668C16.1533 11.3463 15.3899 11.8646 13.5805 11.8646C12.8274 11.8646 12.2559 11.7747 11.8215 11.6429C11.7065 12.0542 11.5319 12.4473 11.303 12.81V12.81Z" fill="#000103" fill-opacity="0.7"/>
</svg>
