<svg width="15" height="18" viewBox="0 0 15 18" fill="none" xmlns="http://www.w3.org/2000/svg">
<path d="M7.42036 0C3.32022 0 0 4.032 0 9C0 13.968 3.32022 18 7.42036 18C11.5279 18 14.8556 13.973 14.8556 9C14.8556 4.02695 11.5279 0 7.42036 0ZM7.42779 16.2C4.1447 16.2 1.48556 12.978 1.48556 9C1.48556 5.022 4.1447 1.8 7.42779 1.8C10.7109 1.8 13.37 5.022 13.37 9C13.37 12.978 10.7109 16.2 7.42779 16.2ZM7.79917 4.5H6.68501V9.9L10.5846 12.735L11.1417 11.628L7.79917 9.225V4.5Z" fill="#000103" fill-opacity="0.7"/>
</svg>
