<svg width="15" height="15" viewBox="0 0 15 15" fill="none" xmlns="http://www.w3.org/2000/svg">
<path d="M2.99624 0.302002C2.21617 0.302002 1.46806 0.605732 0.916465 1.14637C0.364873 1.68702 0.0549927 2.42029 0.0549927 3.18487V5.84598C0.0549927 6.02243 0.126504 6.19164 0.253794 6.31641C0.381084 6.44117 0.553727 6.51126 0.733743 6.51126C0.913758 6.51126 1.0864 6.44117 1.21369 6.31641C1.34098 6.19164 1.41249 6.02243 1.41249 5.84598V3.18487C1.41249 2.32799 2.12201 1.63256 2.99624 1.63256H5.71124C5.89126 1.63256 6.0639 1.56247 6.19119 1.4377C6.31848 1.31294 6.38999 1.14372 6.38999 0.96728C6.38999 0.790837 6.31848 0.621621 6.19119 0.496857C6.0639 0.372093 5.89126 0.302002 5.71124 0.302002H2.99624ZM8.87874 0.302002C8.69873 0.302002 8.52608 0.372093 8.39879 0.496857C8.2715 0.621621 8.19999 0.790837 8.19999 0.96728C8.19999 1.14372 8.2715 1.31294 8.39879 1.4377C8.52608 1.56247 8.69873 1.63256 8.87874 1.63256H11.5937C12.468 1.63256 13.1775 2.32799 13.1775 3.18487V5.84598C13.1775 6.02243 13.249 6.19164 13.3763 6.31641C13.5036 6.44117 13.6762 6.51126 13.8562 6.51126C14.0363 6.51126 14.2089 6.44117 14.3362 6.31641C14.4635 6.19164 14.535 6.02243 14.535 5.84598V3.18487C14.535 2.42029 14.2251 1.68702 13.6735 1.14637C13.1219 0.605732 12.3738 0.302002 11.5937 0.302002H8.87874ZM0.733743 8.28534C0.913758 8.28534 1.0864 8.35543 1.21369 8.48019C1.34098 8.60495 1.41249 8.77417 1.41249 8.95061V11.6117C1.41249 12.4686 2.12201 13.164 2.99624 13.164H5.71124C5.89126 13.164 6.0639 13.2341 6.19119 13.3589C6.31848 13.4837 6.38999 13.6529 6.38999 13.8293C6.38999 14.0058 6.31848 14.175 6.19119 14.2997C6.0639 14.4245 5.89126 14.4946 5.71124 14.4946H2.99624C2.21617 14.4946 1.46806 14.1909 0.916465 13.6502C0.364873 13.1096 0.0549927 12.3763 0.0549927 11.6117V8.95061C0.0549927 8.77417 0.126504 8.60495 0.253794 8.48019C0.381084 8.35543 0.553727 8.28534 0.733743 8.28534V8.28534ZM14.535 8.95061C14.535 8.77417 14.4635 8.60495 14.3362 8.48019C14.2089 8.35543 14.0363 8.28534 13.8562 8.28534C13.6762 8.28534 13.5036 8.35543 13.3763 8.48019C13.249 8.60495 13.1775 8.77417 13.1775 8.95061V11.6117C13.1775 12.0234 13.0106 12.4183 12.7136 12.7094C12.4166 13.0005 12.0138 13.164 11.5937 13.164H8.87874C8.69873 13.164 8.52608 13.2341 8.39879 13.3589C8.2715 13.4837 8.19999 13.6529 8.19999 13.8293C8.19999 14.0058 8.2715 14.175 8.39879 14.2997C8.52608 14.4245 8.69873 14.4946 8.87874 14.4946H11.5937C12.3738 14.4946 13.1219 14.1909 13.6735 13.6502C14.2251 13.1096 14.535 12.3763 14.535 11.6117V8.95061Z" fill="#000103" fill-opacity="0.7"/>
</svg>
