<svg width="18" height="16" viewBox="0 0 18 16" fill="none" xmlns="http://www.w3.org/2000/svg">
<path d="M4.62501 5.38587V2.72476C4.62501 2.25424 4.8157 1.803 5.15514 1.4703C5.49458 1.13759 5.95496 0.950684 6.43501 0.950684H15.485C15.965 0.950684 16.4254 1.13759 16.7649 1.4703C17.1043 1.803 17.295 2.25424 17.295 2.72476V13.3692C17.295 13.8397 17.1043 14.291 16.7649 14.6237C16.4254 14.9564 15.965 15.1433 15.485 15.1433H10.055M10.055 15.1433V9.66848C10.0549 9.19801 9.86414 8.74684 9.52467 8.41421L6.80967 5.7531C6.47025 5.42051 6.00995 5.23368 5.53001 5.23368C5.05006 5.23368 4.58976 5.42051 4.25033 5.7531L1.53533 8.41421C1.19587 8.74684 1.00511 9.19801 1.005 9.66848V13.3692C1.005 13.8397 1.1957 14.291 1.53514 14.6237C1.87458 14.9564 2.33496 15.1433 2.815 15.1433H5.53001M10.055 15.1433H5.53001M5.53001 11.5951V15.1433M13.6759 4.49883H13.675M10.0559 4.49883H10.055M13.6759 8.04698H13.675M13.6759 11.5951H13.675" stroke="black" stroke-width="1.2" stroke-linecap="round" stroke-linejoin="round"/>
</svg>
