<svg width="20" height="15" viewBox="0 0 20 15" fill="none" xmlns="http://www.w3.org/2000/svg">
<path d="M4.18225 4.43108C4.18225 3.84292 4.42063 3.27884 4.84494 2.86295C5.26926 2.44706 5.84475 2.21341 6.44483 2.21341C7.0449 2.21341 7.6204 2.44706 8.04471 2.86295C8.46903 3.27884 8.70741 3.84292 8.70741 4.43108C8.70741 5.01924 8.46903 5.58332 8.04471 5.99921C7.6204 6.4151 7.0449 6.64875 6.44483 6.64875C5.84475 6.64875 5.26926 6.4151 4.84494 5.99921C4.42063 5.58332 4.18225 5.01924 4.18225 4.43108V4.43108ZM6.44483 0.946167C5.50186 0.946167 4.5975 1.31333 3.93072 1.96687C3.26394 2.62042 2.88934 3.50682 2.88934 4.43108C2.88934 5.35534 3.26394 6.24174 3.93072 6.89529C4.5975 7.54883 5.50186 7.91599 6.44483 7.91599C7.3878 7.91599 8.29215 7.54883 8.95894 6.89529C9.62572 6.24174 10.0003 5.35534 10.0003 4.43108C10.0003 3.50682 9.62572 2.62042 8.95894 1.96687C8.29215 1.31333 7.3878 0.946167 6.44483 0.946167ZM13.2326 5.38151C13.2326 5.04542 13.3688 4.72309 13.6113 4.48544C13.8537 4.24778 14.1826 4.11427 14.5255 4.11427C14.8684 4.11427 15.1972 4.24778 15.4397 4.48544C15.6822 4.72309 15.8184 5.04542 15.8184 5.38151C15.8184 5.7176 15.6822 6.03993 15.4397 6.27758C15.1972 6.51524 14.8684 6.64875 14.5255 6.64875C14.1826 6.64875 13.8537 6.51524 13.6113 6.27758C13.3688 6.03993 13.2326 5.7176 13.2326 5.38151ZM14.5255 2.84703C13.8397 2.84703 13.182 3.11405 12.697 3.58936C12.2121 4.06467 11.9397 4.70932 11.9397 5.38151C11.9397 6.0537 12.2121 6.69835 12.697 7.17366C13.182 7.64897 13.8397 7.91599 14.5255 7.91599C15.2113 7.91599 15.869 7.64897 16.3539 7.17366C16.8388 6.69835 17.1113 6.0537 17.1113 5.38151C17.1113 4.70932 16.8388 4.06467 16.3539 3.58936C15.869 3.11405 15.2113 2.84703 14.5255 2.84703V2.84703ZM0.949989 11.0841C0.949989 10.58 1.15431 10.0965 1.51801 9.73998C1.88171 9.3835 2.375 9.18323 2.88934 9.18323H10.0003C10.5147 9.18323 11.0079 9.3835 11.3716 9.73998C11.7353 10.0965 11.9397 10.58 11.9397 11.0841V11.2273C11.9384 11.2864 11.9341 11.3454 11.9267 11.4041C11.9138 11.5137 11.8899 11.6626 11.8427 11.8387C11.7185 12.3034 11.4987 12.7383 11.1969 13.1167C10.4405 14.0684 9.01771 14.8858 6.44483 14.8858C3.87195 14.8858 2.44976 14.0684 1.69276 13.1167C1.39068 12.7384 1.1707 12.3035 1.04631 11.8387C0.996933 11.6523 0.965337 11.4619 0.951929 11.2697C0.951304 11.2556 0.950873 11.2414 0.950636 11.2273V11.2127L0.949989 11.2077V11.0841ZM2.24289 11.1969V11.2045C2.25185 11.311 2.27024 11.4166 2.29784 11.52C2.35602 11.7405 2.47432 12.0383 2.71222 12.338C3.16796 12.9108 4.16932 13.6186 6.44483 13.6186C8.72034 13.6186 9.72234 12.9108 10.1774 12.3387C10.3707 12.0962 10.5115 11.8176 10.5912 11.52C10.619 11.4166 10.6376 11.311 10.6468 11.2045L10.6474 11.1969V11.0841C10.6474 10.916 10.5793 10.7549 10.4581 10.6361C10.3368 10.5172 10.1724 10.4505 10.001 10.4505H2.88934C2.71789 10.4505 2.55347 10.5172 2.43223 10.6361C2.311 10.7549 2.24289 10.916 2.24289 11.0841V11.1969ZM12.248 13.2967C12.8492 13.4969 13.5972 13.6186 14.5255 13.6186C16.5948 13.6186 17.7707 13.0147 18.4126 12.2721C18.7248 11.911 18.8845 11.5447 18.9653 11.2634C19.0089 11.1126 19.0368 10.9578 19.0487 10.8015L19.0493 10.7787L19.05 10.7648V10.7407C19.0501 10.5361 19.009 10.3336 18.9292 10.1446C18.8494 9.95557 18.7323 9.78385 18.5848 9.63921C18.4372 9.49457 18.262 9.37986 18.0692 9.30162C17.8764 9.22338 17.6697 9.18315 17.461 9.18323H12.1672C12.4904 9.53743 12.7251 9.97082 12.8363 10.4505H17.461C17.6226 10.4505 17.7532 10.5766 17.7571 10.7331C17.7507 10.7961 17.7386 10.8584 17.7209 10.9194C17.6808 11.0588 17.5981 11.2539 17.4255 11.4535C17.0984 11.833 16.3349 12.3513 14.5255 12.3513C13.7724 12.3513 13.2009 12.2614 12.7665 12.1296C12.6515 12.5409 12.4769 12.9339 12.248 13.2967V13.2967Z" fill="#000103" fill-opacity="0.7"/>
</svg>
