<svg width="18" height="17" viewBox="0 0 18 17" fill="none" xmlns="http://www.w3.org/2000/svg">
<path d="M4.57001 5.87269V3.21157C4.57001 2.74106 4.76071 2.28982 5.10015 1.95711C5.43959 1.62441 5.89997 1.4375 6.38001 1.4375H15.43C15.9101 1.4375 16.3704 1.62441 16.7099 1.95711C17.0493 2.28982 17.24 2.74106 17.24 3.21157V13.856C17.24 14.3265 17.0493 14.7778 16.7099 15.1105C16.3704 15.4432 15.9101 15.6301 15.43 15.6301H10M10 15.6301V10.1553C9.99991 9.68482 9.80915 9.23366 9.46968 8.90103L6.75468 6.23992C6.41526 5.90733 5.95496 5.72049 5.47501 5.72049C4.99507 5.72049 4.53477 5.90733 4.19534 6.23992L1.48034 8.90103C1.14088 9.23366 0.950115 9.68482 0.950012 10.1553V13.856C0.950012 14.3265 1.14071 14.7778 1.48015 15.1105C1.81959 15.4432 2.27997 15.6301 2.76001 15.6301H5.47501M10 15.6301H5.47501M5.47501 12.0819V15.6301M13.6209 4.98565H13.62M10.0009 4.98565H10M13.6209 8.5338H13.62M13.6209 12.0819H13.62" stroke="black" stroke-width="1.2" stroke-linecap="round" stroke-linejoin="round"/>
</svg>
