<svg width="15" height="15" viewBox="0 0 15 15" fill="none" xmlns="http://www.w3.org/2000/svg">
<path d="M2.99625 0.302002C2.21618 0.302002 1.46806 0.605732 0.916472 1.14637C0.364881 1.68702 0.0550003 2.42029 0.0550003 3.18487V5.84598C0.0550003 6.02243 0.126511 6.19164 0.253801 6.31641C0.381092 6.44117 0.553735 6.51126 0.73375 6.51126C0.913766 6.51126 1.08641 6.44117 1.2137 6.31641C1.34099 6.19164 1.4125 6.02243 1.4125 5.84598V3.18487C1.4125 2.32799 2.12202 1.63256 2.99625 1.63256H5.71125C5.89127 1.63256 6.06391 1.56247 6.1912 1.4377C6.31849 1.31294 6.39 1.14372 6.39 0.96728C6.39 0.790837 6.31849 0.621621 6.1912 0.496857C6.06391 0.372093 5.89127 0.302002 5.71125 0.302002H2.99625ZM8.87875 0.302002C8.69873 0.302002 8.52609 0.372093 8.3988 0.496857C8.27151 0.621621 8.2 0.790837 8.2 0.96728C8.2 1.14372 8.27151 1.31294 8.3988 1.4377C8.52609 1.56247 8.69873 1.63256 8.87875 1.63256H11.5938C12.468 1.63256 13.1775 2.32799 13.1775 3.18487V5.84598C13.1775 6.02243 13.249 6.19164 13.3763 6.31641C13.5036 6.44117 13.6762 6.51126 13.8563 6.51126C14.0363 6.51126 14.2089 6.44117 14.3362 6.31641C14.4635 6.19164 14.535 6.02243 14.535 5.84598V3.18487C14.535 2.42029 14.2251 1.68702 13.6735 1.14637C13.1219 0.605732 12.3738 0.302002 11.5938 0.302002H8.87875ZM0.73375 8.28534C0.913766 8.28534 1.08641 8.35543 1.2137 8.48019C1.34099 8.60495 1.4125 8.77417 1.4125 8.95061V11.6117C1.4125 12.4686 2.12202 13.164 2.99625 13.164H5.71125C5.89127 13.164 6.06391 13.2341 6.1912 13.3589C6.31849 13.4837 6.39 13.6529 6.39 13.8293C6.39 14.0058 6.31849 14.175 6.1912 14.2997C6.06391 14.4245 5.89127 14.4946 5.71125 14.4946H2.99625C2.21618 14.4946 1.46806 14.1909 0.916472 13.6502C0.364881 13.1096 0.0550003 12.3763 0.0550003 11.6117V8.95061C0.0550003 8.77417 0.126511 8.60495 0.253801 8.48019C0.381092 8.35543 0.553735 8.28534 0.73375 8.28534V8.28534ZM14.535 8.95061C14.535 8.77417 14.4635 8.60495 14.3362 8.48019C14.2089 8.35543 14.0363 8.28534 13.8563 8.28534C13.6762 8.28534 13.5036 8.35543 13.3763 8.48019C13.249 8.60495 13.1775 8.77417 13.1775 8.95061V11.6117C13.1775 12.0234 13.0106 12.4183 12.7136 12.7094C12.4166 13.0005 12.0138 13.164 11.5938 13.164H8.87875C8.69873 13.164 8.52609 13.2341 8.3988 13.3589C8.27151 13.4837 8.2 13.6529 8.2 13.8293C8.2 14.0058 8.27151 14.175 8.3988 14.2997C8.52609 14.4245 8.69873 14.4946 8.87875 14.4946H11.5938C12.3738 14.4946 13.1219 14.1909 13.6735 13.6502C14.2251 13.1096 14.535 12.3763 14.535 11.6117V8.95061Z" fill="#000103" fill-opacity="0.7"/>
</svg>
